<svg width="47" height="47" viewBox="0 0 47 47" fill="none" xmlns="http://www.w3.org/2000/svg">
<path d="M36.5415 41.8308C33.3373 38.252 28.6818 36 23.5 36C18.3184 36 13.6623 38.252 10.458 41.8308M23.5 46C11.0736 46 1 35.9265 1 23.5C1 11.0736 11.0736 1 23.5 1C35.9265 1 46 11.0736 46 23.5C46 35.9265 35.9265 46 23.5 46ZM23.5 28.5C19.3577 28.5 16 25.1423 16 21C16 16.8579 19.3577 13.5 23.5 13.5C27.6423 13.5 31 16.8579 31 21C31 25.1423 27.6423 28.5 23.5 28.5Z" stroke="#31347C" stroke-width="2" stroke-linecap="round" stroke-linejoin="round"/>
</svg>
